<?xml version="1.0" encoding="UTF-8"?>
<svg xmlns="http://www.w3.org/2000/svg" width="668" height="127" viewBox="0 0 668 127" fill="none">
  <path d="M218.074 126.935C216.29 126.935 214.584 126.642 212.954 126.056C211.325 125.448 209.816 124.526 208.429 123.289L210.873 120.424C211.996 121.379 213.13 122.117 214.275 122.637C215.443 123.137 216.742 123.386 218.173 123.386C219.428 123.386 220.419 123.126 221.146 122.605C221.894 122.062 222.269 121.368 222.269 120.521V120.456C222.269 120.044 222.192 119.686 222.037 119.382C221.905 119.056 221.641 118.752 221.245 118.47C220.87 118.188 220.342 117.928 219.659 117.689C218.999 117.45 218.129 117.211 217.05 116.973C215.817 116.69 214.716 116.376 213.747 116.028C212.8 115.659 211.996 115.225 211.336 114.726C210.697 114.205 210.202 113.576 209.849 112.838C209.519 112.1 209.354 111.21 209.354 110.168V110.103C209.354 109.126 209.552 108.236 209.949 107.433C210.345 106.608 210.884 105.914 211.567 105.35C212.272 104.764 213.108 104.308 214.077 103.982C215.046 103.657 216.103 103.494 217.248 103.494C218.944 103.494 220.463 103.743 221.806 104.243C223.171 104.72 224.449 105.426 225.638 106.359L223.458 109.387C222.401 108.627 221.355 108.052 220.32 107.661C219.285 107.249 218.239 107.043 217.182 107.043C215.993 107.043 215.068 107.303 214.408 107.824C213.747 108.345 213.417 108.985 213.417 109.745V109.81C213.417 110.244 213.494 110.635 213.648 110.982C213.802 111.308 214.088 111.611 214.507 111.894C214.925 112.154 215.487 112.404 216.191 112.642C216.896 112.881 217.81 113.131 218.933 113.391C220.144 113.695 221.212 114.032 222.137 114.4C223.061 114.769 223.832 115.225 224.449 115.768C225.087 116.289 225.561 116.907 225.869 117.624C226.177 118.318 226.331 119.132 226.331 120.065V120.131C226.331 121.194 226.122 122.149 225.704 122.996C225.307 123.842 224.746 124.558 224.019 125.144C223.293 125.73 222.423 126.175 221.41 126.479C220.397 126.783 219.285 126.935 218.074 126.935Z" fill="white"></path>
  <path d="M262.532 103.819H279.674V107.401H266.594V113.326H278.188V116.907H266.594V123.028H279.839V126.609H262.532V103.819Z" fill="white"></path>
  <path d="M326.816 127C325.12 127 323.557 126.696 322.126 126.089C320.695 125.481 319.45 124.656 318.393 123.614C317.359 122.551 316.544 121.303 315.949 119.87C315.355 118.438 315.057 116.907 315.057 115.28V115.214C315.057 113.587 315.344 112.067 315.916 110.656C316.511 109.224 317.336 107.976 318.393 106.912C319.45 105.827 320.706 104.981 322.159 104.373C323.612 103.743 325.22 103.429 326.981 103.429C328.038 103.429 328.996 103.516 329.855 103.689C330.736 103.863 331.539 104.112 332.266 104.438C332.993 104.742 333.664 105.111 334.281 105.545C334.897 105.979 335.481 106.457 336.031 106.977L333.422 109.94C332.497 109.094 331.517 108.41 330.482 107.889C329.447 107.368 328.269 107.108 326.948 107.108C325.847 107.108 324.823 107.325 323.876 107.759C322.952 108.171 322.148 108.746 321.465 109.484C320.805 110.201 320.276 111.047 319.88 112.024C319.505 113.001 319.318 114.042 319.318 115.149V115.214C319.318 116.321 319.505 117.374 319.88 118.372C320.254 119.349 320.783 120.207 321.465 120.944C322.148 121.661 322.952 122.236 323.876 122.67C324.823 123.082 325.847 123.289 326.948 123.289C328.357 123.289 329.568 123.028 330.581 122.507C331.594 121.986 332.596 121.27 333.587 120.358L336.196 122.963C335.602 123.592 334.974 124.157 334.314 124.656C333.675 125.134 332.982 125.557 332.233 125.926C331.484 126.273 330.658 126.533 329.756 126.707C328.875 126.902 327.895 127 326.816 127Z" fill="white"></path>
  <path d="M381.369 126.968C379.871 126.968 378.517 126.761 377.306 126.349C376.095 125.915 375.06 125.275 374.201 124.428C373.342 123.582 372.682 122.54 372.219 121.303C371.757 120.044 371.526 118.59 371.526 116.94V103.819H375.588V116.777C375.588 118.904 376.106 120.521 377.141 121.628C378.176 122.713 379.607 123.256 381.435 123.256C383.24 123.256 384.661 122.735 385.696 121.693C386.73 120.63 387.248 119.045 387.248 116.94V103.819H391.311V116.745C391.311 118.438 391.068 119.924 390.584 121.205C390.122 122.486 389.461 123.56 388.602 124.428C387.743 125.275 386.697 125.915 385.464 126.349C384.253 126.761 382.888 126.968 381.369 126.968Z" fill="white"></path>
  <path d="M428.31 103.819H438.615C440.068 103.819 441.356 104.026 442.479 104.438C443.602 104.829 444.538 105.382 445.287 106.098C445.904 106.728 446.377 107.455 446.707 108.28C447.038 109.105 447.203 110.016 447.203 111.015V111.08C447.203 112.946 446.685 114.455 445.65 115.605C444.637 116.734 443.327 117.526 441.72 117.982L447.962 126.609H443.14L437.459 118.665H432.372V126.609H428.31V103.819ZM438.318 115.117C439.771 115.117 440.927 114.78 441.786 114.107C442.645 113.413 443.074 112.48 443.074 111.308V111.242C443.074 110.005 442.656 109.072 441.819 108.443C440.982 107.791 439.804 107.466 438.285 107.466H432.372V115.117H438.318Z" fill="white"></path>
  <path d="M483.833 103.819H487.895V126.609H483.833V103.819Z" fill="white"></path>
  <path d="M531.188 107.531H523.855V103.819H542.616V107.531H535.284V126.609H531.188V107.531Z" fill="white"></path>
  <path d="M585.151 117.624L575.969 103.819H580.791L587.232 113.88L593.772 103.819H598.429L589.247 117.526V126.609H585.151V117.624Z" fill="white"></path>
  <path d="M170.733 79.8578C165.972 79.8578 161.582 79.0014 157.564 77.2887C153.545 75.576 150.052 73.2516 147.084 70.3155C144.178 67.3183 141.89 63.8011 140.221 59.764C138.551 55.727 137.717 51.4146 137.717 46.827V46.6435C137.717 42.0559 138.521 37.7741 140.128 33.7982C141.797 29.7611 144.116 26.2439 147.084 23.2467C150.052 20.1883 153.576 17.8027 157.656 16.09C161.737 14.3161 166.25 13.4292 171.197 13.4292C174.164 13.4292 176.854 13.6739 179.265 14.1632C181.738 14.6526 183.995 15.356 186.035 16.2735C188.076 17.1299 189.962 18.1697 191.693 19.3931C193.424 20.6165 195.062 21.9621 196.608 23.4302L189.281 31.7796C186.685 29.3941 183.933 27.4673 181.027 25.9992C178.121 24.5312 174.814 23.7972 171.104 23.7972C168.013 23.7972 165.138 24.4089 162.479 25.6322C159.882 26.7944 157.625 28.4154 155.709 30.4951C153.854 32.5136 152.37 34.8992 151.257 37.6518C150.206 40.4043 149.681 43.3404 149.681 46.46V46.6435C149.681 49.7631 150.206 52.7297 151.257 55.5434C152.308 58.296 153.792 60.7122 155.709 62.7919C157.625 64.8104 159.882 66.4314 162.479 67.6547C165.138 68.8169 168.013 69.398 171.104 69.398C175.061 69.398 178.462 68.664 181.306 67.196C184.15 65.7279 186.963 63.7094 189.745 61.1403L197.072 68.4805C195.402 70.2544 193.64 71.8447 191.786 73.2516C189.993 74.5973 188.045 75.7901 185.943 76.83C183.841 77.8086 181.522 78.5427 178.987 79.032C176.514 79.5825 173.763 79.8578 170.733 79.8578Z" fill="white"></path>
  <path d="M209.062 14.5302H220.469V41.2301H251.445V14.5302H262.852V78.7567H251.445V51.6899H220.469V78.7567H209.062V14.5302Z" fill="white"></path>
  <path d="M279.524 14.5302H327.657V24.623H290.931V41.3219H323.484V51.4146H290.931V68.664H328.121V78.7567H279.524V14.5302Z" fill="white"></path>
  <path d="M371.795 79.8578C367.035 79.8578 362.645 79.0014 358.626 77.2887C354.607 75.576 351.114 73.2516 348.146 70.3155C345.24 67.3183 342.952 63.8011 341.283 59.764C339.614 55.727 338.779 51.4146 338.779 46.827V46.6435C338.779 42.0559 339.583 37.7741 341.19 33.7982C342.86 29.7611 345.178 26.2439 348.146 23.2467C351.114 20.1883 354.638 17.8027 358.719 16.09C362.799 14.3161 367.313 13.4292 372.259 13.4292C375.227 13.4292 377.916 13.6739 380.328 14.1632C382.801 14.6526 385.057 15.356 387.098 16.2735C389.138 17.1299 391.024 18.1697 392.755 19.3931C394.486 20.6165 396.125 21.9621 397.67 23.4302L390.344 31.7796C387.747 29.3941 384.996 27.4673 382.09 25.9992C379.184 24.5312 375.876 23.7972 372.166 23.7972C369.075 23.7972 366.2 24.4089 363.541 25.6322C360.944 26.7944 358.688 28.4154 356.771 30.4951C354.916 32.5136 353.432 34.8992 352.319 37.6518C351.268 40.4043 350.743 43.3404 350.743 46.46V46.6435C350.743 49.7631 351.268 52.7297 352.319 55.5434C353.37 58.296 354.854 60.7122 356.771 62.7919C358.688 64.8104 360.944 66.4314 363.541 67.6547C366.2 68.8169 369.075 69.398 372.166 69.398C376.123 69.398 379.524 68.664 382.368 67.196C385.212 65.7279 388.025 63.7094 390.807 61.1403L398.134 68.4805C396.465 70.2544 394.703 71.8447 392.848 73.2516C391.055 74.5973 389.107 75.7901 387.005 76.83C384.903 77.8086 382.584 78.5427 380.049 79.032C377.576 79.5825 374.825 79.8578 371.795 79.8578Z" fill="white"></path>
  <path d="M410.124 14.5302H421.531V46.827L452.414 14.5302H466.511L439.43 42.1476L467.717 78.7567H453.805L431.64 49.8548L421.531 60.1311V78.7567H410.124V14.5302Z" fill="white"></path>
  <path d="M516.62 27.9667C514.803 26.6082 512.333 25.8742 509.211 25.765V25.7504H484.851L476.288 13.4292H509.581C517.793 13.4292 524.092 15.5271 528.476 19.7229C532.181 23.2686 534.033 27.9963 534.033 33.9058V34.0831C534.033 39.1062 532.736 43.2134 530.143 46.4045C527.611 49.5366 524.277 51.8413 520.14 53.3187L535.978 75.4795H519.306L512.657 65.9769L497.083 43.5679H508.655C512.174 43.5679 514.86 42.7701 516.713 41.1746C518.627 39.579 519.584 37.4515 519.584 34.7923V34.615C519.584 31.6602 518.596 29.4441 516.62 27.9667Z" fill="#AD3434"></path>
  <path d="M595.78 13.4292H546.876V75.4795H596.243V63.3354H561.047V50.3048H591.612V38.1607H561.047V25.5733H595.78V13.4292Z" fill="#AD3434"></path>
  <path d="M609.329 13.4292H633.739C638.627 13.4292 643.098 14.2282 647.152 15.8261C651.265 17.3649 654.782 19.5251 657.703 22.3068C660.683 25.0884 662.978 28.3731 664.588 32.1608C666.197 35.8894 667.002 39.9435 667.002 44.3231V44.5006C667.002 48.8802 666.197 52.9639 664.588 56.7517C662.978 60.5394 660.683 63.8241 657.703 66.6057C654.782 69.3874 651.265 71.5772 647.152 73.1751C643.098 74.7731 638.627 75.5721 633.739 75.5721H609.329V13.4292ZM623.099 25.769V63.2323H633.739C636.541 63.2323 639.104 62.7884 641.429 61.9006C643.754 61.0129 645.721 59.7404 647.331 58.0833C649 56.4261 650.281 54.4731 651.175 52.2241C652.129 49.9751 652.606 47.4598 652.606 44.6782V44.5006C652.606 41.7782 652.129 39.2629 651.175 36.9547C650.281 34.6465 649 32.6639 647.331 31.0068C645.721 29.3496 643.754 28.0772 641.429 27.1894C639.104 26.2425 636.541 25.769 633.739 25.769H623.099Z" fill="#AD3434"></path>
  <path d="M73.5262 19.205C71.5024 16.1685 68.8949 13.5672 65.8564 11.5532C62.8179 9.53933 59.4094 8.15327 55.8302 7.47616C52.2511 6.79906 48.5731 6.8445 45.0117 7.60985C41.4503 8.37519 38.0768 9.84506 35.0887 11.9334C32.1006 14.0218 29.5579 16.6868 27.6094 19.7724C25.6608 22.858 24.3455 26.3023 23.7405 29.9038C23.1355 33.5053 23.2528 37.1916 24.0857 40.747C19.235 41.8449 14.9011 44.5648 11.7961 48.4596C8.69109 52.3543 6.99975 57.1924 7 62.1786C7 68.0039 9.30782 73.5906 13.4158 77.7097C17.5237 81.8288 23.0953 84.1429 28.9048 84.1429H78.1905C81.8092 84.1429 85.3921 83.4236 88.7319 82.0266C92.0718 80.6296 95.1023 78.5826 97.6483 76.004C100.194 73.4255 102.205 70.3664 103.565 67.0037C104.925 63.641 105.606 60.0414 105.57 56.413C105.392 38.5974 86.1291 32.2542 74.0834 44.3326L53.337 65.0096L42.3846 54.0274" stroke="#AD3434" stroke-width="12.2222" stroke-linecap="round"></path>
</svg>
